<svg xmlns="http://www.w3.org/2000/svg" xmlns:xlink="http://www.w3.org/1999/xlink" version="1.1" x="0px" y="0px" viewBox="0 0 100 100" style="enable-background:new 0 0 100 100;" xml:space="preserve"><path d="M84.1,69c-3.1,0-5.7,2.6-5.7,5.7s2.6,5.7,5.7,5.7c3.1,0,5.7-2.6,5.7-5.7S87.3,69,84.1,69z" fill="#8B939F"/><path d="M89.9,82.5H78.3c-2.8,0-5,2.4-5,5.2v4.9h21.6v-4.9C94.9,84.8,92.7,82.5,89.9,82.5z" fill="#8B939F"/><path d="M51.1,1.1c-3.1,0-5.7,2.6-5.7,5.7s2.6,5.7,5.7,5.7c3.1,0,5.7-2.6,5.7-5.7S54.2,1.1,51.1,1.1z" fill="#8B939F"/><path d="M56.9,14.6H45.3c-2.8,0-5,2.4-5,5.2v4.9h21.6v-4.9C61.9,17,59.6,14.6,56.9,14.6z" fill="#8B939F"/><path d="M17.6,68.9c-3.2,0-5.7,2.6-5.7,5.7c0,3.2,2.6,5.7,5.7,5.7s5.7-2.6,5.7-5.7C23.4,71.5,20.8,68.9,17.6,68.9z" fill="#8B939F"/><path d="M23.5,82.5H11.8c-2.8,0-5,2.4-5,5.3v4.9h21.8v-4.9C28.5,84.8,26.2,82.5,23.5,82.5z" fill="#8B939F"/><path d="M91.5,53.7c0.1,4.5-0.6,8.8-1.8,12.9l3.2,3.1c1.9-5,2.8-10.5,2.7-16c-0.3-18.8-12.3-34.7-29-41l0.1,4.3  C81,23.1,91.2,37.2,91.5,53.7z" fill="#8B939F"/><path d="M9.4,53.7c-0.1,4.5,0.6,8.8,1.8,12.9L8,69.7c-1.9-5-2.8-10.5-2.7-16c0.3-18.8,12.3-34.7,29-41l-0.1,4.3  C19.9,23.1,9.7,37.2,9.4,53.7z" fill="#8B939F"/><path d="M66.5,91.4c-4.9,2.1-10.2,3.2-15.9,3.2c-5.2,0-10.2-1-14.8-2.7l-3,3c5.5,2.4,11.5,3.7,17.8,3.7  c6.8,0,13.1-1.5,18.8-4.2L66.5,91.4z" fill="#8B939F"/><path d="M30.4,66.5c-0.5,0-0.9,0.4-0.9,0.9v6.4c0,0.5,0.4,0.9,0.9,0.9h6.2c0.5,0,0.9-0.4,0.9-0.9v-6.4  c0-0.5-0.4-0.9-0.9-0.9H30.4z" fill="#8B939F"/><path d="M41.4,62.3c-0.5,0-0.9,0.4-0.9,0.9v10.6c0,0.5,0.4,0.9,0.9,0.9h6.2c0.5,0,0.9-0.4,0.9-0.9V63.2  c0-0.5-0.4-0.9-0.9-0.9H41.4z" fill="#8B939F"/><path d="M52.8,57c-0.5,0-0.9,0.4-0.9,0.9v15.9c0,0.5,0.4,0.9,0.9,0.9H59c0.5,0,0.9-0.4,0.9-0.9V57.9  c0-0.5-0.4-0.9-0.9-0.9H52.8z" fill="#8B939F"/><path d="M70.7,49.9h-6.2c-0.5,0-0.9,0.4-0.9,0.9v23c0,0.5,0.4,0.9,0.9,0.9h6.2c0.5,0,0.9-0.4,0.9-0.9v-23  C71.6,50.3,71.2,49.9,70.7,49.9z" fill="#8B939F"/><path d="M71.1,44.3l-3-11.9c0-0.2-0.1-0.3-0.3-0.4c-0.1-0.1-0.3-0.1-0.5,0l-12.1,4.3c-0.2,0.1-0.4,0.3-0.4,0.5  c0,0.2,0.1,0.5,0.3,0.6l3.4,1.7c-2.8,4.2-11.8,15.7-28.4,21.2c-0.3,0.1-0.5,0.4-0.4,0.7c0.1,0.3,0.3,0.4,0.6,0.4c0,0,0.1,0,0.1,0  c0.2,0,24.7-4.7,35.6-18.6l4.1,2.1c0.2,0.1,0.5,0.1,0.6-0.1C71.1,44.8,71.2,44.5,71.1,44.3z" fill="#8B939F"/></svg>