<svg version="1.1" xmlns="http://www.w3.org/2000/svg" xmlns:xlink="http://www.w3.org/1999/xlink" x="0px" y="0px"
	 viewBox="0 0 62.2 63.2" style="enable-background:new 0 0 62.2 63.2;" xml:space="preserve">
<path class="st0" d="M53.3,42.8c0.3-0.8,0.6-1.6,0.8-2.3l5.3,2.1V9.3L45.1,3.6v18.9c-0.9-0.2-1.8-0.4-2.7-0.5V0l19.8,7.8v38.4
	L53.3,42.8z M54,36.1c0,6.9-12.6,27.1-12.6,27.1S28.8,43,28.8,36.1c0-6.9,5.6-12.6,12.6-12.6C48.4,23.5,54,29.2,54,36.1z M41.6,28.2
	c-4.4,0-8.1,3.6-8.1,8.1c0,4.4,3.6,8.1,8.1,8.1s8.1-3.6,8.1-8.1C49.6,31.8,46,28.2,41.6,28.2z M41.7,40.4c-2.2,0-4-1.8-4-4
	c0-2.2,1.8-4,4-4s4,1.8,4,4C45.8,38.6,44,40.4,41.7,40.4z M38.3,3.6L23.9,9.3v33.2l4.8-1.9c0.2,0.7,0.5,1.5,0.9,2.3l-8.4,3.3V7.8
	L41,0v22.1c-0.9,0-1.8,0.1-2.7,0.4V3.6z M0,0l19.8,7.8v38.4L0,38.4V0z M2.7,36.9l14.4,5.6V9.3L2.7,3.6C2.7,3.6,2.7,36.9,2.7,36.9z"
	 fill="#8B939F"/>
</svg>
