<svg xmlns="http://www.w3.org/2000/svg" xmlns:xlink="http://www.w3.org/1999/xlink" version="1.1" x="0px" y="0px" viewBox="0 0 100 100" style="enable-background:new 0 0 100 100;" xml:space="preserve"><path d="M84,69.3c-3.2,0-5.7,2.6-5.7,5.7c0,3.2,2.6,5.7,5.7,5.7c3.2,0,5.7-2.6,5.7-5.7C89.7,71.9,87.2,69.3,84,69.3z  " fill="#8B939F"/><path d="M89.8,82.9H78.1c-2.8,0-5.1,2.4-5.1,5.3v4.9h21.8v-4.9C94.9,85.3,92.6,82.9,89.8,82.9z" fill="#8B939F"/><path d="M50.7,0.8c-3.2,0-5.7,2.6-5.7,5.7s2.6,5.7,5.7,5.7s5.7-2.6,5.7-5.7S53.8,0.8,50.7,0.8z" fill="#8B939F"/><path d="M56.5,14.4H44.8c-2.8,0-5.1,2.4-5.1,5.3v4.9h21.8v-4.9C61.6,16.8,59.3,14.4,56.5,14.4z" fill="#8B939F"/><path d="M16.9,69.2c-3.2,0-5.8,2.6-5.8,5.8s2.6,5.8,5.8,5.8s5.8-2.6,5.8-5.8S20.1,69.2,16.9,69.2z" fill="#8B939F"/><path d="M22.8,82.9H11c-2.8,0-5.1,2.4-5.1,5.3v5h22v-5C27.9,85.3,25.6,82.9,22.8,82.9z" fill="#8B939F"/><path d="M91.4,53.9c0.1,4.6-0.6,8.9-1.8,13l3.2,3.1c1.9-5.1,2.8-10.5,2.7-16.2c-0.3-19-12.4-35-29.3-41.4l0.1,4.4  C80.8,23,91.1,37.3,91.4,53.9z" fill="#8B939F"/><path d="M8.6,53.9c-0.1,4.6,0.6,8.9,1.8,13L7.2,70c-1.9-5.1-2.8-10.5-2.7-16.2c0.3-19,12.4-35,29.3-41.4l-0.1,4.4  C19.2,23,8.9,37.3,8.6,53.9z" fill="#8B939F"/><path d="M66.2,91.9c-4.9,2.1-10.3,3.3-16,3.3c-5.2,0-10.3-1-14.9-2.8l-3.1,3.1c5.5,2.4,11.6,3.8,17.9,3.8  c6.8,0,13.3-1.5,19-4.3L66.2,91.9z" fill="#8B939F"/><path d="M68.9,34.6H32.4c-1.9,0-3.4,1.5-3.4,3.4v7.5h43.3V38C72.3,36.2,70.8,34.6,68.9,34.6z M38.8,42.2  c-1.1,0-2.1-0.9-2.1-2.1c0-1.1,0.9-2.1,2.1-2.1s2.1,0.9,2.1,2.1C40.9,41.2,40,42.2,38.8,42.2z M62.5,42.2c-1.1,0-2.1-0.9-2.1-2.1  c0-1.1,0.9-2.1,2.1-2.1s2.1,0.9,2.1,2.1C64.6,41.2,63.6,42.2,62.5,42.2z" fill="#8B939F"/><path d="M29,47.8v21.7c0,1.9,1.5,3.4,3.4,3.4h36.6c1.9,0,3.4-1.5,3.4-3.4V47.8H29z M48.6,65.6l-6.1-6.1l2.3-2.3  l3.8,3.8l7.8-7.8l2.3,2.3L48.6,65.6z" fill="#8B939F"/></svg>