<?xml version="1.0" encoding="utf-8"?>
<svg version="1.1" xmlns="http://www.w3.org/2000/svg" xmlns:xlink="http://www.w3.org/1999/xlink" x="0px" y="0px"
	 viewBox="0 0 250 69" style="enable-background:new 0 0 250 69;" xml:space="preserve">
<style type="text/css">
	.black{fill:#000;}
	.red{fill:#DA2128;}
	.blue{fill:#047AC0;}
</style>
<g id="logo_text">
	<path class="black" d="M133.6,24.9h8.9v-2.7h-8.9v-11h-2.7v21.9c0,6.4,5.2,11.6,11.6,11.6V42c-4.9,0-8.9-4-8.9-8.9V24.9"/>
	<path class="black" d="M95.9,33.1V11.2h-2.7v21.9c0,6.4,5.2,11.6,11.6,11.6V42C99.9,42,95.9,38,95.9,33.1"/>
	<path class="black" d="M116.4,44.7c-6.4,0-11.6-5.2-11.6-11.6c0-6.4,5.2-11.6,11.6-11.6c6.4,0,11.6,5.2,11.6,11.6
		C128.1,39.5,122.9,44.7,116.4,44.7 M116.4,24.2c-4.9,0-8.9,4-8.9,8.9c0,4.9,4,8.9,8.9,8.9c4.9,0,8.9-4,8.9-8.9
		C125.3,28.2,121.3,24.2,116.4,24.2z"/>
	<path class="black" d="M149.3,24.9h8.9v-2.7h-8.9v-11h-2.7v21.9c0,6.4,5.2,11.6,11.6,11.6V42c-4.9,0-8.9-4-8.9-8.9V24.9"/>
	<path class="black" d="M172.6,21.4c-6.4,0-11.6,5.2-11.6,11.6c0,6.4,5.2,11.6,11.6,11.6V42c-4.4,0-8.1-3.3-8.8-7.5h20.4
		c0.1-0.4,0.1-0.9,0.1-1.4C184.2,26.7,179,21.4,172.6,21.4 M172.6,24.2c4.4,0,8.1,3.3,8.8,7.5h-17.6
		C164.5,27.4,168.2,24.2,172.6,24.2z"/>
	<path class="black" d="M207.5,22.1h-2.7v1.1c-1.8-1.1-3.9-1.8-6.2-1.8c-6.4,0-11.6,5.2-11.6,11.6s5.2,11.6,11.6,11.6
		c2.3,0,4.4-0.6,6.2-1.8V44h2.7V22.1 M204.8,39.5c-1.6,1.5-3.8,2.5-6.2,2.5c-4.9,0-8.9-4-8.9-8.9s4-8.9,8.9-8.9
		c2.4,0,4.6,0.9,6.2,2.5V39.5z"/>
	<path class="black" d="M238.4,21.4c-3.6,0-6.8,1.6-8.9,4.2c-2.1-2.5-5.3-4.2-8.9-4.2c-2.3,0-4.4,0.6-6.2,1.8V22h-2.7V44h2.7V26.6
		c1.6-1.5,3.8-2.5,6.2-2.5c3,0,5.7,1.5,7.3,3.8c1,1.4,1.6,3.2,1.6,5.1v11h2.7V33l0-0.7c-0.1-1.6-0.5-3-1.1-4.4
		c1.6-2.3,4.3-3.8,7.3-3.8c4.9,0,8.9,4,8.9,8.9v11h2.7V33C250,26.6,244.8,21.4,238.4,21.4"/>
	<path class="red" d="M32.9,5.7V0.2c-4.4,0-8.7,0.9-12.8,2.6c-3.9,1.7-7.4,4-10.4,7c-3,3-5.4,6.5-7,10.5C0.9,24.3,0,28.6,0,33.1
		c0,1.9,0.2,3.7,0.5,5.5c0.3,1.9,0.8,3.7,1.4,5.5h31v-5.5H6c-0.4-1.8-0.5-3.6-0.5-5.5C5.5,18,17.8,5.7,32.9,5.7"/>
</g>
<g id="bottom_text">
	<rect x="93.1" y="56.5" class="black" width="1" height="9.5"/>
	<polyline class="black" points="95.3,57.5 95.3,56.5 100.5,56.5 100.5,57.5 98.4,57.5 98.4,66 97.4,66 97.4,57.5 95.3,57.5 	"/>
	<path class="black" d="M110.1,56.3c1.4,0,2.6,0.5,3.6,1.4c1,1,1.5,2.1,1.5,3.5c0,1.4-0.5,2.6-1.5,3.5c-1,1-2.2,1.5-3.5,1.5
		c-1.4,0-2.6-0.5-3.6-1.4c-1-1-1.5-2.1-1.5-3.5c0-0.9,0.2-1.8,0.7-2.5c0.4-0.8,1-1.4,1.8-1.8C108.4,56.5,109.2,56.3,110.1,56.3
		 M110.1,57.2c-0.7,0-1.4,0.2-2,0.6c-0.6,0.4-1.1,0.9-1.5,1.5c-0.4,0.6-0.5,1.3-0.5,2.1c0,1.1,0.4,2.1,1.2,2.9
		c0.8,0.8,1.7,1.2,2.8,1.2c0.7,0,1.4-0.2,2.1-0.5c0.6-0.4,1.1-0.8,1.5-1.5c0.4-0.6,0.5-1.3,0.5-2.1c0-0.8-0.2-1.4-0.5-2
		c-0.4-0.6-0.8-1.1-1.5-1.5C111.5,57.4,110.8,57.2,110.1,57.2z"/>
	<path class="black" d="M116.8,59h0.9v3.3c0,0.8,0,1.4,0.1,1.7c0.1,0.4,0.4,0.8,0.7,1c0.4,0.3,0.8,0.4,1.3,0.4c0.5,0,0.9-0.1,1.3-0.4
		c0.4-0.2,0.6-0.6,0.7-1c0.1-0.3,0.1-0.8,0.1-1.7V59h0.9v3.5c0,1-0.1,1.7-0.3,2.2c-0.2,0.5-0.6,0.9-1,1.2c-0.5,0.3-1,0.4-1.7,0.4
		c-0.7,0-1.3-0.1-1.7-0.4c-0.5-0.3-0.8-0.7-1-1.2c-0.2-0.5-0.3-1.2-0.3-2.2V59"/>
	<polyline class="black" points="125.7,56.4 126.6,56.4 126.6,59 128.1,59 128.1,59.8 126.6,59.8 126.6,66 125.7,66 125.7,59.8 
		124.5,59.8 124.5,59 125.7,59 125.7,56.4 	"/>
	<path class="black" d="M133,59.8l-0.6,0.6c-0.5-0.5-1-0.7-1.4-0.7c-0.3,0-0.5,0.1-0.8,0.3c-0.2,0.2-0.3,0.4-0.3,0.7
		c0,0.2,0.1,0.4,0.3,0.7c0.2,0.2,0.5,0.5,1.1,0.7c0.7,0.3,1.1,0.7,1.4,1c0.2,0.3,0.4,0.7,0.4,1.1c0,0.6-0.2,1.1-0.6,1.5
		c-0.4,0.4-0.9,0.6-1.5,0.6c-0.4,0-0.8-0.1-1.2-0.3c-0.4-0.2-0.7-0.4-0.9-0.7l0.6-0.6c0.5,0.5,1,0.8,1.5,0.8c0.4,0,0.7-0.1,0.9-0.4
		c0.3-0.2,0.4-0.5,0.4-0.8c0-0.3-0.1-0.5-0.3-0.7c-0.2-0.2-0.5-0.5-1.1-0.8c-0.6-0.3-1.1-0.6-1.3-1c-0.2-0.3-0.3-0.7-0.3-1.1
		c0-0.5,0.2-1,0.5-1.3c0.4-0.4,0.8-0.5,1.4-0.5C131.7,58.8,132.3,59.1,133,59.8"/>
	<path class="black" d="M137.9,58.8c1.1,0,2,0.4,2.7,1.2c0.6,0.7,1,1.6,1,2.5c0,1-0.3,1.8-1,2.6c-0.7,0.7-1.6,1.1-2.6,1.1
		c-1.1,0-2-0.4-2.6-1.1c-0.7-0.7-1-1.6-1-2.6c0-1,0.3-1.8,1-2.5C135.9,59.2,136.8,58.8,137.9,58.8 M137.9,59.7
		c-0.8,0-1.4,0.3-1.9,0.8s-0.8,1.2-0.8,2c0,0.5,0.1,1,0.4,1.4c0.2,0.4,0.6,0.8,1,1c0.4,0.2,0.9,0.4,1.4,0.4c0.5,0,1-0.1,1.4-0.4
		c0.4-0.2,0.8-0.6,1-1c0.2-0.4,0.4-0.9,0.4-1.4c0-0.8-0.3-1.5-0.8-2C139.3,60,138.7,59.7,137.9,59.7z"/>
	<path class="black" d="M143.1,59h0.9v3.3c0,0.8,0,1.4,0.1,1.7c0.1,0.4,0.4,0.8,0.7,1c0.4,0.3,0.8,0.4,1.3,0.4c0.5,0,0.9-0.1,1.3-0.4
		c0.4-0.2,0.6-0.6,0.7-1c0.1-0.3,0.1-0.8,0.1-1.7V59h0.9v3.5c0,1-0.1,1.7-0.3,2.2c-0.2,0.5-0.6,0.9-1,1.2c-0.5,0.3-1,0.4-1.7,0.4
		c-0.7,0-1.3-0.1-1.7-0.4c-0.5-0.3-0.8-0.7-1-1.2c-0.2-0.5-0.3-1.2-0.3-2.2V59"/>
	<path class="black" d="M151,59h0.9v1c0.3-0.4,0.6-0.7,0.9-0.9c0.3-0.2,0.6-0.3,1-0.3c0.3,0,0.5,0.1,0.8,0.2l-0.5,0.8
		c-0.2-0.1-0.4-0.1-0.5-0.1c-0.3,0-0.6,0.1-0.9,0.4c-0.3,0.2-0.5,0.6-0.6,1.2c-0.1,0.4-0.2,1.2-0.2,2.4V66H151V59"/>
	<path class="black" d="M162.1,60.5l-0.7,0.4c-0.6-0.8-1.5-1.2-2.5-1.2c-0.9,0-1.6,0.3-2.1,0.8c-0.6,0.6-0.9,1.2-0.9,2
		c0,0.5,0.1,1,0.4,1.4c0.3,0.5,0.6,0.8,1.1,1.1c0.5,0.3,1,0.4,1.5,0.4c1,0,1.9-0.4,2.5-1.2l0.7,0.5c-0.3,0.5-0.8,0.9-1.4,1.2
		c-0.6,0.3-1.2,0.4-1.9,0.4c-1.1,0-2-0.4-2.8-1.1c-0.7-0.7-1.1-1.6-1.1-2.6c0-0.7,0.2-1.3,0.5-1.9c0.3-0.6,0.8-1,1.4-1.4
		c0.6-0.3,1.3-0.5,2-0.5c0.5,0,0.9,0.1,1.3,0.2c0.4,0.1,0.8,0.3,1.1,0.6C161.7,59.8,161.9,60.1,162.1,60.5"/>
	<path class="black" d="M164.2,56.1c0.2,0,0.4,0.1,0.5,0.2c0.1,0.1,0.2,0.3,0.2,0.5c0,0.2-0.1,0.4-0.2,0.5c-0.1,0.1-0.3,0.2-0.5,0.2
		c-0.2,0-0.4-0.1-0.5-0.2c-0.1-0.1-0.2-0.3-0.2-0.5c0-0.2,0.1-0.4,0.2-0.5C163.8,56.2,164,56.1,164.2,56.1 M163.7,66v-7h0.9v7H163.7
		z"/>
	<path class="black" d="M166.5,59h0.9v1.3c0.4-0.5,0.8-0.8,1.2-1.1c0.4-0.2,0.9-0.4,1.4-0.4c0.5,0,1,0.1,1.4,0.4
		c0.4,0.3,0.7,0.6,0.9,1.1s0.3,1.2,0.3,2.1V66h-0.9v-3.4c0-0.8,0-1.4-0.1-1.6c-0.1-0.5-0.3-0.8-0.6-1c-0.3-0.2-0.7-0.4-1.2-0.4
		c-0.5,0-1,0.2-1.5,0.5c-0.4,0.4-0.7,0.8-0.9,1.3c-0.1,0.3-0.1,1-0.1,1.9V66h-0.9V59"/>
	<path class="black" d="M180.7,59h0.9v5.6c0,1-0.1,1.7-0.3,2.2c-0.2,0.6-0.6,1.1-1.2,1.5c-0.6,0.3-1.3,0.5-2.1,0.5
		c-0.6,0-1.1-0.1-1.6-0.3c-0.5-0.2-0.9-0.4-1.2-0.7c-0.3-0.3-0.6-0.7-0.8-1.3h1c0.3,0.5,0.6,0.8,1,1s0.9,0.3,1.6,0.3
		c0.6,0,1.1-0.1,1.6-0.3c0.4-0.2,0.7-0.5,0.9-0.9c0.2-0.3,0.3-0.9,0.3-1.7v-0.4c-0.3,0.4-0.8,0.8-1.3,1c-0.5,0.2-1,0.3-1.6,0.3
		c-0.6,0-1.3-0.2-1.8-0.5c-0.6-0.3-1-0.8-1.3-1.3c-0.3-0.5-0.5-1.1-0.5-1.8c0-0.7,0.2-1.3,0.5-1.8c0.3-0.6,0.8-1,1.3-1.3
		c0.6-0.3,1.2-0.5,1.8-0.5c0.5,0,1,0.1,1.5,0.3c0.5,0.2,0.9,0.6,1.3,1.1V59 M178,59.7c-0.5,0-1,0.1-1.4,0.4c-0.4,0.2-0.8,0.6-1,1
		c-0.2,0.4-0.4,0.9-0.4,1.4c0,0.8,0.3,1.4,0.8,1.9c0.5,0.5,1.2,0.8,2,0.8c0.8,0,1.5-0.3,2-0.8c0.5-0.5,0.8-1.2,0.8-2
		c0-0.5-0.1-1-0.3-1.4c-0.2-0.4-0.6-0.7-1-1C178.9,59.8,178.5,59.7,178,59.7z"/>
	<polyline class="black" points="188,56.4 188.9,56.4 188.9,59 190.3,59 190.3,59.8 188.9,59.8 188.9,66 188,66 188,59.8 186.7,59.8 
		186.7,59 188,59 188,56.4 	"/>
	<path class="black" d="M195,58.8c1.1,0,2,0.4,2.7,1.2c0.6,0.7,1,1.6,1,2.5c0,1-0.3,1.8-1,2.6c-0.7,0.7-1.6,1.1-2.6,1.1
		c-1.1,0-2-0.4-2.6-1.1c-0.7-0.7-1-1.6-1-2.6c0-1,0.3-1.8,1-2.5C193,59.2,193.9,58.8,195,58.8 M195,59.7c-0.8,0-1.4,0.3-1.9,0.8
		c-0.5,0.6-0.8,1.2-0.8,2c0,0.5,0.1,1,0.4,1.4c0.2,0.4,0.6,0.8,1,1c0.4,0.2,0.9,0.4,1.4,0.4c0.5,0,1-0.1,1.4-0.4
		c0.4-0.2,0.8-0.6,1-1c0.2-0.4,0.4-0.9,0.4-1.4c0-0.8-0.3-1.5-0.8-2C196.4,60,195.7,59.7,195,59.7z"/>
	<path class="black" d="M204.2,56.5h1v5.7c0,0.7,0,1.1,0,1.3c0,0.4,0.2,0.7,0.3,0.9c0.2,0.3,0.4,0.5,0.8,0.6c0.4,0.2,0.7,0.3,1.1,0.3
		c0.3,0,0.6-0.1,0.9-0.2c0.3-0.1,0.5-0.3,0.7-0.6c0.2-0.2,0.3-0.5,0.4-0.9c0.1-0.2,0.1-0.7,0.1-1.5v-5.7h0.9v5.7
		c0,0.8-0.1,1.5-0.2,2.1c-0.2,0.5-0.5,1-1,1.4c-0.5,0.4-1.1,0.6-1.8,0.6c-0.8,0-1.4-0.2-2-0.6c-0.5-0.4-0.9-0.9-1.1-1.5
		c-0.1-0.4-0.2-1-0.2-2V56.5"/>
	<polyline class="black" points="212.7,56.3 213.6,56.3 213.6,61.9 216.8,59 218.2,59 214.3,62.4 218.4,66 217.1,66 213.6,62.9 
		213.6,66 212.7,66 212.7,56.3 	"/>
	<path class="black" d="M219,59h0.9v1c0.3-0.4,0.6-0.7,0.9-0.9c0.3-0.2,0.6-0.3,1-0.3c0.3,0,0.5,0.1,0.8,0.2l-0.5,0.8
		c-0.2-0.1-0.3-0.1-0.5-0.1c-0.3,0-0.6,0.1-0.9,0.4c-0.3,0.2-0.5,0.6-0.6,1.2c-0.1,0.4-0.2,1.2-0.2,2.4V66H219V59"/>
	<path class="black" d="M230.3,59v7h-0.9v-1.2c-0.4,0.5-0.8,0.8-1.3,1c-0.5,0.2-1,0.4-1.5,0.4c-1,0-1.8-0.4-2.6-1.1
		c-0.7-0.7-1.1-1.6-1.1-2.6c0-1,0.4-1.9,1.1-2.6c0.7-0.7,1.6-1.1,2.6-1.1c0.6,0,1.1,0.1,1.6,0.4c0.5,0.2,0.9,0.6,1.2,1.1V59H230.3
		 M226.7,59.7c-0.5,0-1,0.1-1.4,0.4c-0.4,0.2-0.8,0.6-1,1c-0.3,0.4-0.4,0.9-0.4,1.4c0,0.5,0.1,1,0.4,1.4c0.3,0.5,0.6,0.8,1,1.1
		c0.4,0.3,0.9,0.4,1.4,0.4c0.5,0,1-0.1,1.4-0.4c0.4-0.3,0.8-0.6,1-1c0.2-0.4,0.4-0.9,0.4-1.4c0-0.8-0.3-1.5-0.8-2
		C228.1,60,227.5,59.7,226.7,59.7z"/>
	<path class="black" d="M232.7,56.1c0.2,0,0.4,0.1,0.5,0.2c0.1,0.1,0.2,0.3,0.2,0.5c0,0.2-0.1,0.4-0.2,0.5c-0.1,0.1-0.3,0.2-0.5,0.2
		c-0.2,0-0.4-0.1-0.5-0.2c-0.1-0.1-0.2-0.3-0.2-0.5c0-0.2,0.1-0.4,0.2-0.5C232.3,56.2,232.5,56.1,232.7,56.1 M232.2,66v-7h0.9v7
		H232.2z"/>
	<path class="black" d="M235,59h0.9v1.3c0.4-0.5,0.8-0.8,1.2-1.1c0.4-0.2,0.9-0.4,1.4-0.4c0.5,0,1,0.1,1.4,0.4
		c0.4,0.3,0.7,0.6,0.9,1.1s0.3,1.2,0.3,2.1V66h-0.9v-3.4c0-0.8,0-1.4-0.1-1.6c-0.1-0.5-0.3-0.8-0.6-1c-0.3-0.2-0.7-0.4-1.2-0.4
		c-0.5,0-1,0.2-1.5,0.5c-0.4,0.4-0.7,0.8-0.9,1.3c-0.1,0.3-0.1,1-0.1,1.9V66H235V59"/>
	<path class="black" d="M249,63.7l0.8,0.4c-0.3,0.5-0.5,0.9-0.9,1.2c-0.3,0.3-0.7,0.5-1.1,0.7c-0.4,0.2-0.9,0.2-1.4,0.2
		c-1.1,0-2-0.4-2.7-1.1c-0.6-0.8-1-1.6-1-2.6c0-0.9,0.3-1.7,0.8-2.4c0.7-0.9,1.6-1.3,2.8-1.3c1.2,0,2.2,0.5,2.9,1.4
		c0.5,0.6,0.8,1.4,0.8,2.4h-6.3c0,0.8,0.3,1.5,0.8,2c0.5,0.5,1.1,0.8,1.9,0.8c0.4,0,0.7-0.1,1-0.2c0.3-0.1,0.6-0.3,0.9-0.5
		C248.5,64.5,248.7,64.2,249,63.7 M249,61.8c-0.1-0.5-0.3-0.9-0.5-1.2c-0.2-0.3-0.5-0.5-0.9-0.7c-0.4-0.2-0.8-0.3-1.2-0.3
		c-0.7,0-1.3,0.2-1.8,0.7c-0.4,0.3-0.6,0.8-0.8,1.5H249z"/>
</g>
<g id="red_logo_part">
</g>
<g id="black_logo_part">
	<path class="black" d="M71.2,22.1H32.9v5.5h26.8c0.4,1.8,0.6,3.6,0.6,5.5c0,15.1-12.3,27.4-27.4,27.4V66c4.4,0,8.7-0.9,12.8-2.6
		c3.9-1.7,7.4-4,10.5-7c3-3,5.4-6.5,7-10.4c1.7-4.1,2.6-8.4,2.6-12.8c0-1.9-0.2-3.7-0.5-5.5h5.9V22.1"/>
</g>
<g id="blue_logo_part">
	<path class="blue" d="M32.9,55c-5.9,0-11.4-2.3-15.5-6.4c-4.1-4.1-6.4-9.6-6.4-15.5s2.3-11.4,6.4-15.5c4.1-4.1,9.6-6.4,15.5-6.4
		c5.9,0,11.4,2.3,15.5,6.4c4.1,4.1,6.4,9.6,6.4,15.5s-2.3,11.4-6.4,15.5C44.2,52.7,38.7,55,32.9,55 M32.9,16.6
		c-9.1,0-16.4,7.4-16.4,16.4c0,9.1,7.4,16.4,16.4,16.4c9.1,0,16.4-7.4,16.4-16.4C49.3,24,41.9,16.6,32.9,16.6z"/>
</g>
</svg>
