<svg version="1.1" xmlns="http://www.w3.org/2000/svg" xmlns:xlink="http://www.w3.org/1999/xlink" x="0px" y="0px"
	 viewBox="0 0 80.4 56.9" style="enable-background:new 0 0 80.4 56.9;" xml:space="preserve">
<path d="M4.4,2.4l36,34.6L76.2,2.4c0.1-0.1,0.3-0.2,0.4-0.3C74.9,0.8,72.9,0,70.6,0H9.9c-2.3,0-4.3,0.8-6,2.1
	C4.1,2.2,4.3,2.2,4.4,2.4z" fill="#8B939F"/>
<path d="M78.8,50c0.3,0.2,0.7,0.4,0.9,0.7c0.5-1.1,0.7-2.4,0.7-3.7V9.9c0-0.6-0.1-1.2-0.2-1.7L58.3,29.4
	C67.2,38.7,76.7,48.4,78.8,50z" fill="#8B939F"/>
<path d="M53.3,34.3L42.9,44.4c-0.7,0.7-1.6,1-2.4,1c-0.9,0-1.7-0.3-2.4-1L27.4,34.1L5.4,55.8c1.3,0.7,2.8,1.1,4.4,1.1h60.7
	c1.6,0,3.1-0.4,4.4-1.1C72.1,53.8,66.6,48.2,53.3,34.3z" fill="#8B939F"/>
<path d="M0.2,8C0.1,8.6,0,9.2,0,9.9V47c0,1.3,0.3,2.5,0.7,3.7l21.6-21.4L0.2,8z" fill="#8B939F"/>
</svg>
