<svg xmlns="http://www.w3.org/2000/svg" xmlns:xlink="http://www.w3.org/1999/xlink" version="1.1" x="0px" y="0px" viewBox="0 0 100 100" style="enable-background:new 0 0 100 100;" xml:space="preserve"><path d="M84.2,69.2c-3.2,0-5.7,2.6-5.7,5.7c0,3.2,2.6,5.7,5.7,5.7s5.7-2.6,5.7-5.7C89.9,71.8,87.4,69.2,84.2,69.2z" fill="#8B939F"/><path d="M90.1,82.8H78.3c-2.8,0-5,2.4-5,5.3V93h21.8v-4.9C95.1,85.2,92.8,82.8,90.1,82.8z" fill="#8B939F"/><path d="M50.9,0.8c-3.2,0-5.7,2.6-5.7,5.7s2.6,5.7,5.7,5.7s5.7-2.6,5.7-5.7S54.1,0.8,50.9,0.8z" fill="#8B939F"/><path d="M56.7,14.4H45c-2.8,0-5,2.4-5,5.3v4.9h21.8v-4.9C61.8,16.8,59.5,14.4,56.7,14.4z" fill="#8B939F"/><path d="M17.2,69.1c-3.2,0-5.8,2.6-5.8,5.8s2.6,5.8,5.8,5.8s5.8-2.6,5.8-5.8S20.3,69.1,17.2,69.1z" fill="#8B939F"/><path d="M23,82.8H11.3c-2.8,0-5.1,2.4-5.1,5.3v4.9h21.9v-4.9C28.1,85.2,25.8,82.8,23,82.8z" fill="#8B939F"/><path d="M91.6,53.8c0.1,4.5-0.6,8.9-1.8,13l3.2,3.1c1.9-5.1,2.8-10.5,2.7-16.2c-0.3-19-12.4-35-29.2-41.3l0.1,4.4  C81.1,22.9,91.3,37.2,91.6,53.8z" fill="#8B939F"/><path d="M8.9,53.8c-0.1,4.5,0.6,8.9,1.8,13l-3.2,3.1c-1.9-5.1-2.8-10.5-2.7-16.2c0.3-19,12.4-35,29.2-41.3L34,16.8  C19.4,22.9,9.2,37.2,8.9,53.8z" fill="#8B939F"/><path d="M66.5,91.8c-4.9,2.1-10.3,3.3-16,3.3c-5.2,0-10.3-1-14.9-2.8l-3.1,3.1c5.5,2.4,11.6,3.8,17.9,3.8  c6.8,0,13.3-1.5,19-4.3L66.5,91.8z" fill="#8B939F"/><polygon points="53.5,69.1 48.2,73.2 47.1,77.9 54.3,72.4 " fill="#8B939F"/><path d="M54.7,74.2l-6.6,5l3.3,3.1c0.1,0,0.1,0.1,0.2,0.1c0.1,0,0.1,0,0.2-0.1l3.8-4.1c0.1-0.1,0.1-0.2,0.1-0.2  L54.7,74.2z" fill="#8B939F"/><path d="M50.1,64.6l-1.4,6.1l4.4-3.4l-0.6-2.6l1.8-2.3c0.1-0.1,0.1-0.2,0-0.2l-1.2-3c0-0.1-0.1-0.2-0.2-0.2h-3.5  c-0.1,0-0.2,0.1-0.2,0.2l-1.1,3c0,0.1,0,0.2,0.1,0.2L50.1,64.6z" fill="#8B939F"/><path d="M51.3,30.5c-7.1,0-12.8,5.8-12.8,12.8s5.8,12.8,12.8,12.8s12.8-5.8,12.8-12.8S58.4,30.5,51.3,30.5z   M61,43.3c0,5.4-4.3,9.7-9.7,9.7s-9.7-4.3-9.7-9.7c0-0.8,0.1-1.6,0.3-2.3c1.1,0.6,3.2,1.4,5.5,1.4c1.7,0,3.5-0.4,5.3-1.6  c0.2-0.2,4.4-3.2,7.9-0.1C60.8,41.5,61,42.4,61,43.3z" fill="#8B939F"/><path d="M72.1,72.6l0.1-3.4c0-5.7-4.6-10.3-10.3-10.3h-0.3l-5.1,22.3C62.6,80,68,77,72.1,72.6z M67.7,69.1h-4.7  v-1.5h4.7V69.1z" fill="#8B939F"/><path d="M45.9,81.5L40.4,59h-0.5c-5.7,0-10.3,4.6-10.3,10.3l0.2,3.9C34.1,77.4,39.7,80.4,45.9,81.5z" fill="#8B939F"/></svg>